<svg version="1.1" id="Layer_1" xmlns="http://www.w3.org/2000/svg" xmlns:xlink="http://www.w3.org/1999/xlink" x="0px" y="0px"
	 width="100%" viewBox="0 0 496 496" enable-background="new 0 0 496 496" xml:space="preserve">
<path fill="#000000" opacity="1.000000" stroke="none" 
	d="
M265.494812,341.372467 
	C263.092255,318.744080 268.159424,298.289062 279.997803,279.499115 
	C278.342194,277.600128 276.391052,278.382690 274.705475,278.377655 
	C254.540619,278.317139 234.375504,278.338837 214.210464,278.335144 
	C212.877533,278.334900 211.544495,278.308289 210.211670,278.284912 
	C208.491577,278.254791 207.274933,277.528900 207.152451,275.700104 
	C207.010910,273.586792 208.287216,272.880829 210.223663,272.619263 
	C214.503067,272.041168 218.849457,271.630676 223.003876,270.530273 
	C229.698074,268.757233 231.719772,264.784637 231.257477,257.808777 
	C230.200806,241.864182 229.551056,225.893051 228.654282,209.937286 
	C227.301529,185.868698 225.879013,161.804031 224.409088,136.405853 
	C223.044083,138.925415 222.151382,140.377106 221.440933,141.913116 
	C201.515121,184.994156 181.608047,228.083847 161.695602,271.171051 
	C161.136612,272.380646 160.558655,273.581573 159.978577,274.781250 
	C159.077347,276.645111 158.026367,278.232788 155.585617,278.259308 
	C153.095749,278.286346 152.113312,276.636322 151.255249,274.759674 
	C147.168976,265.822571 143.068375,256.891907 139.012848,247.940857 
	C122.585724,211.684052 106.174774,175.419937 89.746704,139.163559 
	C89.340706,138.267517 88.805122,137.430206 87.735115,135.482925 
	C87.236504,140.580948 86.707130,144.548080 86.482681,148.532394 
	C85.368668,168.308182 84.458870,188.096207 83.234138,207.864853 
	C82.245682,223.819550 81.134155,239.761429 81.102776,255.757950 
	C81.081993,266.352448 83.308380,269.191223 93.730766,271.272278 
	C95.680687,271.661621 97.705139,271.662201 99.675751,271.967651 
	C101.767525,272.291870 104.261803,272.240845 104.190285,275.413910 
	C104.114594,278.771912 101.556473,278.302551 99.471611,278.308380 
	C84.639565,278.349762 69.807381,278.339233 54.975239,278.342926 
	C51.642204,278.343750 48.308849,278.361725 44.976261,278.321014 
	C43.117092,278.298309 41.142914,278.315247 40.887917,275.745605 
	C40.611008,272.955170 42.649147,272.436401 44.686565,272.135071 
	C47.804749,271.673828 50.947948,271.579559 53.953548,270.325928 
	C60.263535,267.694031 63.838570,262.901001 64.574524,256.326843 
	C65.554985,247.568451 66.078316,238.754913 66.648453,229.955368 
	C68.305275,204.384125 70.027069,178.815781 71.440704,153.230682 
	C72.157135,140.264236 72.419838,127.266151 72.586975,114.278503 
	C72.681709,106.917122 68.842545,102.968422 59.917465,100.444664 
	C57.656170,99.805222 54.881916,99.731964 55.228920,96.475288 
	C55.588818,93.097595 58.500957,93.747269 60.726288,93.736053 
	C70.725220,93.685631 80.725601,93.804619 90.723312,93.684410 
	C95.323700,93.629105 98.077347,95.627869 99.943901,99.806671 
	C119.166618,142.842148 138.490005,185.832672 157.785538,228.835632 
	C157.921921,229.139572 158.034897,229.457626 158.202805,229.743225 
	C159.250839,231.525833 159.448929,234.382462 162.170395,234.288483 
	C164.559753,234.205963 164.899643,231.622147 165.690674,229.876938 
	C175.455124,208.334442 185.170212,186.769562 194.896408,165.209732 
	C204.348877,144.256683 213.951263,123.369148 223.158417,102.308838 
	C225.919113,95.994064 229.588120,93.052979 236.815048,93.567688 
	C245.934586,94.217194 255.135788,93.701469 264.301575,93.734367 
	C266.446198,93.742058 268.856964,93.499084 269.192535,96.630394 
	C269.521271,99.697479 267.353851,99.909859 265.125946,100.477196 
	C252.682007,103.646103 249.839478,108.362099 250.854080,121.385635 
	C252.004456,136.152069 252.484741,150.970215 253.293015,165.763870 
	C254.536911,188.530365 255.789566,211.296463 257.087677,234.059921 
	C257.476135,240.872055 257.972107,247.742249 257.907562,254.498215 
	C257.812805,264.413116 263.620209,269.116455 274.611206,271.610962 
	C277.193298,272.196991 279.951599,272.056702 282.496704,272.741577 
	C285.248535,273.482086 286.055054,271.350098 287.269684,270.004700 
	C301.139008,254.642441 317.970032,243.858154 337.880798,238.397171 
	C380.790375,226.628220 426.152985,238.250916 452.538361,278.498322 
	C470.614441,306.070984 472.579193,335.749329 459.226807,365.689484 
	C443.657776,400.599915 416.101105,421.340179 378.453369,426.734314 
	C354.654633,430.144135 331.807190,424.350769 310.749969,412.330170 
	C285.357666,397.834900 270.337097,376.263824 266.050842,347.296753 
	C265.783173,345.487976 265.716125,343.649506 265.494812,341.372467 
M298.595490,358.901428 
	C299.802673,362.004272 300.891541,365.159424 302.235535,368.201843 
	C314.643188,396.289337 340.414581,419.562683 375.831512,416.830444 
	C398.950165,415.046967 415.900269,404.302338 427.062469,384.477600 
	C440.188660,361.164673 441.784973,335.906799 436.638336,310.324707 
	C431.261780,283.599945 416.836304,262.756989 391.879059,250.579941 
	C364.099823,237.025955 326.784271,243.391388 307.984985,273.712067 
	C291.518005,300.271118 289.282990,328.597900 298.595490,358.901428 
z"/>
</svg>